<svg version="1.1" xmlns="http://www.w3.org/2000/svg" xmlns:xlink="http://www.w3.org/1999/xlink" width="1596" height="1020"><defs/><g><g transform="translate(-190,-6) scale(1,1)"><rect fill="#C0C0C0" stroke="none" x="1183" y="23" width="240" height="15" opacity="0.2"/></g><g transform="translate(-190,-6) scale(1,1)"><rect fill="#C0C0C0" stroke="none" x="1183" y="37" width="600" height="986" opacity="0.2"/></g><g transform="translate(-190,-6) scale(1,1)"><rect fill="#ffffff" stroke="none" x="1176" y="31" width="600" height="985"/></g><g transform="translate(-190,-6) scale(1,1)"><path fill="none" stroke="#000000" d="M 1176 31 L 1776 31 L 1776 1016 L 1176 1016 L 1176 31 Z Z" stroke-miterlimit="10"/></g><g transform="translate(-190,-6) scale(1,1)"><rect fill="#ffffff" stroke="none" x="1176" y="16" width="240" height="15"/></g><g transform="translate(-190,-6) scale(1,1)"><path fill="none" stroke="#000000" d="M 1176 16 L 1416 16 L 1416 31 L 1176 31 L 1176 16 Z Z" stroke-miterlimit="10"/></g><g transform="translate(-190,-6) scale(1,1)"><rect fill="#ffffff" stroke="none" x="1176" y="30" width="600" height="986"/></g><g transform="translate(-190,-6) scale(1,1)"><path fill="none" stroke="#000000" d="M 1176 30 L 1776 30 L 1776 1016 L 1176 1016 L 1176 30 Z Z" stroke-miterlimit="10"/></g><g transform="translate(-190,-6) scale(1,1)"><g><path fill="none" stroke="none"/><text fill="#000000" stroke="none" font-family="Arial" font-size="13px" font-style="normal" font-weight="bold" text-decoration="none" x="1443.135009765625" y="50.5">WarGames</text></g></g><g transform="translate(-190,-6) scale(1,1)"><rect fill="#C0C0C0" stroke="none" x="1207" y="655" width="185.5999999999999" height="15" opacity="0.2"/></g><g transform="translate(-190,-6) scale(1,1)"><rect fill="#C0C0C0" stroke="none" x="1207" y="669" width="464" height="298" opacity="0.2"/></g><g transform="translate(-190,-6) scale(1,1)"><rect fill="#ffffff" stroke="none" x="1200" y="663" width="464" height="297"/></g><g transform="translate(-190,-6) scale(1,1)"><path fill="none" stroke="#000000" d="M 1200 663 L 1664 663 L 1664 960 L 1200 960 L 1200 663 Z Z" stroke-miterlimit="10"/></g><g transform="translate(-190,-6) scale(1,1)"><rect fill="#ffffff" stroke="none" x="1200" y="648" width="185.5999999999999" height="15"/></g><g transform="translate(-190,-6) scale(1,1)"><path fill="none" stroke="#000000" d="M 1200 648 L 1385.6 648 L 1385.6 663 L 1200 663 L 1200 648 Z Z" stroke-miterlimit="10"/></g><g transform="translate(-190,-6) scale(1,1)"><rect fill="#ffffff" stroke="none" x="1200" y="662" width="464" height="298"/></g><g transform="translate(-190,-6) scale(1,1)"><path fill="none" stroke="#000000" d="M 1200 662 L 1664 662 L 1664 960 L 1200 960 L 1200 662 Z Z" stroke-miterlimit="10"/></g><g transform="translate(-190,-6) scale(1,1)"><g><path fill="none" stroke="none"/><text fill="#000000" stroke="none" font-family="Arial" font-size="13px" font-style="normal" font-weight="bold" text-decoration="none" x="1413.9345703125" y="682.5">Action</text></g></g><g transform="translate(-190,-6) scale(1,1)"><rect fill="#C0C0C0" stroke="none" x="1207" y="63" width="220.79999999999995" height="15" opacity="0.2"/></g><g transform="translate(-190,-6) scale(1,1)"><rect fill="#C0C0C0" stroke="none" x="1207" y="77" width="552" height="522" opacity="0.2"/></g><g transform="translate(-190,-6) scale(1,1)"><rect fill="#ffffff" stroke="none" x="1200" y="71" width="552" height="521"/></g><g transform="translate(-190,-6) scale(1,1)"><path fill="none" stroke="#000000" d="M 1200 71 L 1752 71 L 1752 592 L 1200 592 L 1200 71 Z Z" stroke-miterlimit="10"/></g><g transform="translate(-190,-6) scale(1,1)"><rect fill="#ffffff" stroke="none" x="1200" y="56" width="220.79999999999995" height="15"/></g><g transform="translate(-190,-6) scale(1,1)"><path fill="none" stroke="#000000" d="M 1200 56 L 1420.8 56 L 1420.8 71 L 1200 71 L 1200 56 Z Z" stroke-miterlimit="10"/></g><g transform="translate(-190,-6) scale(1,1)"><rect fill="#ffffff" stroke="none" x="1200" y="70" width="552" height="522"/></g><g transform="translate(-190,-6) scale(1,1)"><path fill="none" stroke="#000000" d="M 1200 70 L 1752 70 L 1752 592 L 1200 592 L 1200 70 Z Z" stroke-miterlimit="10"/></g><g transform="translate(-190,-6) scale(1,1)"><g><path fill="none" stroke="none"/><text fill="#000000" stroke="none" font-family="Arial" font-size="13px" font-style="normal" font-weight="bold" text-decoration="none" x="1450.701416015625" y="90.5">Planning</text></g></g><g transform="translate(-190,-6) scale(1,1)"><rect fill="#C0C0C0" stroke="none" x="703" y="39" width="176" height="15" opacity="0.2"/></g><g transform="translate(-190,-6) scale(1,1)"><rect fill="#C0C0C0" stroke="none" x="703" y="53" width="440" height="962" opacity="0.2"/></g><g transform="translate(-190,-6) scale(1,1)"><rect fill="#ffffff" stroke="none" x="696" y="47" width="440" height="961"/></g><g transform="translate(-190,-6) scale(1,1)"><path fill="none" stroke="#000000" d="M 696 47 L 1136 47 L 1136 1008 L 696 1008 L 696 47 Z Z" stroke-miterlimit="10"/></g><g transform="translate(-190,-6) scale(1,1)"><rect fill="#ffffff" stroke="none" x="696" y="32" width="176" height="15"/></g><g transform="translate(-190,-6) scale(1,1)"><path fill="none" stroke="#000000" d="M 696 32 L 872 32 L 872 47 L 696 47 L 696 32 Z Z" stroke-miterlimit="10"/></g><g transform="translate(-190,-6) scale(1,1)"><rect fill="#ffffff" stroke="none" x="696" y="46" width="440" height="962"/></g><g transform="translate(-190,-6) scale(1,1)"><path fill="none" stroke="#000000" d="M 696 46 L 1136 46 L 1136 1008 L 696 1008 L 696 46 Z Z" stroke-miterlimit="10"/></g><g transform="translate(-190,-6) scale(1,1)"><g><path fill="none" stroke="none"/><text fill="#000000" stroke="none" font-family="Arial" font-size="13px" font-style="normal" font-weight="normal" text-decoration="none" x="884.925048828125" y="64.5">«External»</text></g></g><g transform="translate(-190,-6) scale(1,1)"><g><path fill="none" stroke="none"/><text fill="#000000" stroke="none" font-family="Arial" font-size="13px" font-style="normal" font-weight="bold" text-decoration="none" x="885.28369140625" y="79.5">ParagonAI</text></g></g><g transform="translate(-190,-6) scale(1,1)"><rect fill="#C0C0C0" stroke="none" x="815" y="103" width="286.08154296875" height="308" opacity="0.2"/></g><g transform="translate(-190,-6) scale(1,1)"><rect fill="#ffffff" stroke="none" x="808" y="96" width="286.08154296875" height="308"/></g><g transform="translate(-190,-6) scale(1,1)"><path fill="none" stroke="#000000" d="M 808 96 L 1094.08154296875 96 L 1094.08154296875 404 L 808 404 L 808 96 Z Z" stroke-miterlimit="10"/></g><g transform="translate(-190,-6) scale(1,1)"><path fill="none" stroke="#000000" d="M 808 134 L 1094.08154296875 134" stroke-miterlimit="10"/></g><g transform="translate(-190,-6) scale(1,1)"><path fill="none" stroke="#000000" d="M 808 217 L 1094.08154296875 217" stroke-miterlimit="10"/></g><g transform="translate(-190,-6) scale(1,1)"><g><path fill="none" stroke="none"/><text fill="#000000" stroke="none" font-family="Arial" font-size="13px" font-style="normal" font-weight="normal" text-decoration="none" x="919.9658203125" y="113.5">«External»</text></g></g><g transform="translate(-190,-6) scale(1,1)"><g><path fill="none" stroke="none"/><text fill="#000000" stroke="none" font-family="Arial" font-size="13px" font-style="normal" font-weight="bold" text-decoration="none" x="893.23583984375" y="128.5">CustomAIBehaviour</text></g></g><g transform="translate(-190,-6) scale(1,1)"><g><path fill="none" stroke="none"/><text fill="#000000" stroke="none" font-family="Arial" font-size="13px" font-style="normal" font-weight="normal" text-decoration="none" x="813" y="151.5">+baseScript: BaseScript</text></g></g><g transform="translate(-190,-6) scale(1,1)"><g><path fill="none" stroke="none"/><text fill="#000000" stroke="none" font-family="Arial" font-size="13px" font-style="normal" font-weight="normal" text-decoration="none" x="813" y="166.5">+coverFinderScript: CoverScript</text></g></g><g transform="translate(-190,-6) scale(1,1)"><g><path fill="none" stroke="none"/><text fill="#000000" stroke="none" font-family="Arial" font-size="13px" font-style="normal" font-weight="normal" text-decoration="none" x="813" y="181.5">+myTransform: Transform</text></g></g><g transform="translate(-190,-6) scale(1,1)"><g><path fill="none" stroke="none"/><text fill="#000000" stroke="none" font-family="Arial" font-size="13px" font-style="normal" font-weight="normal" text-decoration="none" x="813" y="196.5">+layerMask:  LayerMask</text></g></g><g transform="translate(-190,-6) scale(1,1)"><g><path fill="none" stroke="none"/><text fill="#000000" stroke="none" font-family="Arial" font-size="13px" font-style="normal" font-weight="normal" text-decoration="none" x="813" y="211.5">+targetVector: Transform</text></g></g><g transform="translate(-190,-6) scale(1,1)"><g><path fill="none" stroke="none"/><text fill="#000000" stroke="none" font-family="Arial" font-size="13px" font-style="normal" font-weight="normal" text-decoration="none" x="813" y="234.5">+AICycle()</text></g></g><g transform="translate(-190,-6) scale(1,1)"><g><path fill="none" stroke="none"/><text fill="#000000" stroke="none" font-family="Arial" font-size="13px" font-style="normal" font-weight="normal" text-decoration="none" x="813" y="249.5">+ApplyBehaviour()</text></g></g><g transform="translate(-190,-6) scale(1,1)"><g><path fill="none" stroke="none"/><text fill="#000000" stroke="none" font-family="Arial" font-size="13px" font-style="normal" font-weight="normal" text-decoration="none" x="813" y="264.5">+EachFrame()</text></g></g><g transform="translate(-190,-6) scale(1,1)"><g><path fill="none" stroke="none"/><text fill="#000000" stroke="none" font-family="Arial" font-size="13px" font-style="normal" font-weight="normal" text-decoration="none" x="813" y="279.5">+Initiate()</text></g></g><g transform="translate(-190,-6) scale(1,1)"><g><path fill="none" stroke="none"/><text fill="#000000" stroke="none" font-family="Arial" font-size="13px" font-style="normal" font-weight="normal" text-decoration="none" x="813" y="294.5">+KillBehaviour()</text></g></g><g transform="translate(-190,-6) scale(1,1)"><g><path fill="none" stroke="none"/><text fill="#000000" stroke="none" font-family="Arial" font-size="13px" font-style="normal" font-weight="normal" text-decoration="none" x="813" y="309.5">+OnEndBehaviour()</text></g></g><g transform="translate(-190,-6) scale(1,1)"><g><path fill="none" stroke="none"/><text fill="#000000" stroke="none" font-family="Arial" font-size="13px" font-style="normal" font-weight="normal" text-decoration="none" x="813" y="324.5">+Start()</text></g></g><g transform="translate(-190,-6) scale(1,1)"><path fill="none" stroke="#000000" d="M 1240 152 L 1094 152" stroke-miterlimit="10"/></g><g transform="translate(-190,-6) scale(1,1)"><path fill="#FFFFFF" stroke="none" d="M 1114.3253497152482 143.58096448796803 L 1094 152 L 1114.3253497152482 160.41903551203197"/></g><g transform="translate(-190,-6) scale(1,1)"><path fill="none" stroke="#000000" d="M 1114.3253497152482 143.58096448796803 L 1094 152 L 1114.3253497152482 160.41903551203197 L 1114.3253497152482 143.58096448796803" stroke-miterlimit="10"/></g><g transform="translate(-190,-6) scale(1,1)"><path fill="none" stroke="#000000" d="M 1560 846 L 1472 846" stroke-miterlimit="10"/></g><g transform="translate(-190,-6) scale(1,1)"><path fill="#FFFFFF" stroke="none" d="M 1492.3253497152482 837.580964487968 L 1472 846 L 1492.3253497152482 854.419035512032"/></g><g transform="translate(-190,-6) scale(1,1)"><path fill="none" stroke="#000000" d="M 1492.3253497152482 837.580964487968 L 1472 846 L 1492.3253497152482 854.419035512032 L 1492.3253497152482 837.580964487968" stroke-miterlimit="10"/></g><g transform="translate(-190,-6) scale(1,1)"><path fill="none" stroke="#000000" d="M 1560 798 L 1472 798" stroke-miterlimit="10"/></g><g transform="translate(-190,-6) scale(1,1)"><path fill="#FFFFFF" stroke="none" d="M 1492.3253497152482 789.580964487968 L 1472 798 L 1492.3253497152482 806.419035512032"/></g><g transform="translate(-190,-6) scale(1,1)"><path fill="none" stroke="#000000" d="M 1492.3253497152482 789.580964487968 L 1472 798 L 1492.3253497152482 806.419035512032 L 1492.3253497152482 789.580964487968" stroke-miterlimit="10"/></g><g transform="translate(-190,-6) scale(1,1)"><path fill="none" stroke="#000000" d="M 1560 750 L 1472 750" stroke-miterlimit="10"/></g><g transform="translate(-190,-6) scale(1,1)"><path fill="#FFFFFF" stroke="none" d="M 1492.3253497152482 741.580964487968 L 1472 750 L 1492.3253497152482 758.419035512032"/></g><g transform="translate(-190,-6) scale(1,1)"><path fill="none" stroke="#000000" d="M 1492.3253497152482 741.580964487968 L 1472 750 L 1492.3253497152482 758.419035512032 L 1492.3253497152482 741.580964487968" stroke-miterlimit="10"/></g><g transform="translate(-190,-6) scale(1,1)"><path fill="none" stroke="#000000" d="M 1560 888 L 1472 888" stroke-miterlimit="10"/></g><g transform="translate(-190,-6) scale(1,1)"><path fill="#FFFFFF" stroke="none" d="M 1492.3253497152482 879.580964487968 L 1472 888 L 1492.3253497152482 896.419035512032"/></g><g transform="translate(-190,-6) scale(1,1)"><path fill="none" stroke="#000000" d="M 1492.3253497152482 879.580964487968 L 1472 888 L 1492.3253497152482 896.419035512032 L 1492.3253497152482 879.580964487968" stroke-miterlimit="10"/></g><g transform="translate(-190,-6) scale(1,1)"><path fill="none" stroke="#000000" d="M 1588 273 L 1588 319" stroke-miterlimit="10"/></g><g transform="translate(-190,-6) scale(1,1)"><path fill="none" stroke="#000000" d="M 1583.7904822439841 308.83732514237585 L 1588 319 L 1592.2095177560159 308.83732514237585" stroke-miterlimit="10"/></g><g transform="translate(-190,-6) scale(1,1)"><g><path fill="none" stroke="none"/><text fill="#000000" stroke="none" font-family="Arial" font-size="13px" font-style="normal" font-weight="normal" text-decoration="none" x="1599" y="302">-type</text></g></g><g transform="translate(-190,-6) scale(1,1)"><g><path fill="none" stroke="none"/><text fill="#000000" stroke="none" font-family="Arial" font-size="13px" font-style="normal" font-weight="normal" text-decoration="none" x="1572" y="304">1</text></g></g><g transform="translate(-190,-6) scale(1,1)"><path fill="none" stroke="#000000" d="M 1341 569 L 1343 703" stroke-miterlimit="10"/></g><g transform="translate(-190,-6) scale(1,1)"><path fill="none" stroke="#000000" d="M 1338.6392862136918 692.9012785327101 L 1343 703 L 1347.0573841417227 692.7756352800529" stroke-miterlimit="10"/></g><g transform="translate(-190,-6) scale(1,1)"><g><path fill="none" stroke="none"/><text fill="#000000" stroke="none" font-family="Arial" font-size="13px" font-style="normal" font-weight="normal" text-decoration="none" x="1356" y="641">-actionList</text></g></g><g transform="translate(-190,-6) scale(1,1)"><g><path fill="none" stroke="none"/><text fill="#000000" stroke="none" font-family="Arial" font-size="13px" font-style="normal" font-weight="normal" text-decoration="none" x="1321" y="688">1..*</text></g></g><g transform="translate(-190,-6) scale(1,1)"><rect fill="#C0C0C0" stroke="none" x="1223" y="711" width="256" height="216" opacity="0.2"/></g><g transform="translate(-190,-6) scale(1,1)"><rect fill="#ffffff" stroke="none" x="1216" y="704" width="256" height="216"/></g><g transform="translate(-190,-6) scale(1,1)"><path fill="none" stroke="#000000" d="M 1216 704 L 1472 704 L 1472 920 L 1216 920 L 1216 704 Z Z" stroke-miterlimit="10"/></g><g transform="translate(-190,-6) scale(1,1)"><path fill="none" stroke="#000000" d="M 1216 742 L 1472 742" stroke-miterlimit="10"/></g><g transform="translate(-190,-6) scale(1,1)"><path fill="none" stroke="#000000" d="M 1216 765 L 1472 765" stroke-miterlimit="10"/></g><g transform="translate(-190,-6) scale(1,1)"><g><path fill="none" stroke="none"/><text fill="#000000" stroke="none" font-family="Arial" font-size="13px" font-style="normal" font-weight="normal" text-decoration="none" x="1311.477783203125" y="721.5">«Interface»</text></g></g><g transform="translate(-190,-6) scale(1,1)"><g><path fill="none" stroke="none"/><text fill="#000000" stroke="none" font-family="Arial" font-size="13px" font-style="normal" font-weight="bold" text-decoration="none" x="1300.642333984375" y="736.5">ActionInterface</text></g></g><g transform="translate(-190,-6) scale(1,1)"><g><path fill="none" stroke="none"/><text fill="#000000" stroke="none" font-family="Arial" font-size="13px" font-style="normal" font-weight="normal" text-decoration="none" x="1221" y="759.5">-baseScript: BaseScript</text></g></g><g transform="translate(-190,-6) scale(1,1)"><g><path fill="none" stroke="none"/><text fill="#000000" stroke="none" font-family="Arial" font-size="13px" font-style="normal" font-weight="normal" text-decoration="none" x="1221" y="782.5">+AICycle(): bool</text></g></g><g transform="translate(-190,-6) scale(1,1)"><g><path fill="none" stroke="none"/><text fill="#000000" stroke="none" font-family="Arial" font-size="13px" font-style="normal" font-weight="normal" text-decoration="none" x="1221" y="797.5">+OnEndAction()</text></g></g><g transform="translate(-190,-6) scale(1,1)"><g><path fill="none" stroke="none"/><text fill="#000000" stroke="none" font-family="Arial" font-size="13px" font-style="normal" font-weight="normal" text-decoration="none" x="1221" y="812.5">+isComplete(): boolean</text></g></g><g transform="translate(-190,-6) scale(1,1)"><rect fill="#C0C0C0" stroke="none" x="1567" y="735" width="80" height="44" opacity="0.2"/></g><g transform="translate(-190,-6) scale(1,1)"><rect fill="#ffffff" stroke="none" x="1560" y="728" width="80" height="44"/></g><g transform="translate(-190,-6) scale(1,1)"><path fill="none" stroke="#000000" d="M 1560 728 L 1640 728 L 1640 772 L 1560 772 L 1560 728 Z Z" stroke-miterlimit="10"/></g><g transform="translate(-190,-6) scale(1,1)"><path fill="none" stroke="#000000" d="M 1560 753 L 1640 753" stroke-miterlimit="10"/></g><g transform="translate(-190,-6) scale(1,1)"><path fill="none" stroke="#000000" d="M 1560 763 L 1640 763" stroke-miterlimit="10"/></g><g transform="translate(-190,-6) scale(1,1)"><g><path fill="none" stroke="none"/><text fill="#000000" stroke="none" font-family="Arial" font-size="13px" font-style="normal" font-weight="bold" text-decoration="none" x="1568.20458984375" y="747.5">ProceedTo</text></g></g><g transform="translate(-190,-6) scale(1,1)"><rect fill="#C0C0C0" stroke="none" x="1567" y="831" width="80" height="44" opacity="0.2"/></g><g transform="translate(-190,-6) scale(1,1)"><rect fill="#ffffff" stroke="none" x="1560" y="824" width="80" height="44"/></g><g transform="translate(-190,-6) scale(1,1)"><path fill="none" stroke="#000000" d="M 1560 824 L 1640 824 L 1640 868 L 1560 868 L 1560 824 Z Z" stroke-miterlimit="10"/></g><g transform="translate(-190,-6) scale(1,1)"><path fill="none" stroke="#000000" d="M 1560 849 L 1640 849" stroke-miterlimit="10"/></g><g transform="translate(-190,-6) scale(1,1)"><path fill="none" stroke="#000000" d="M 1560 859 L 1640 859" stroke-miterlimit="10"/></g><g transform="translate(-190,-6) scale(1,1)"><g><path fill="none" stroke="none"/><text fill="#000000" stroke="none" font-family="Arial" font-size="13px" font-style="normal" font-weight="bold" text-decoration="none" x="1581.937744140625" y="843.5">Attack</text></g></g><g transform="translate(-190,-6) scale(1,1)"><rect fill="#C0C0C0" stroke="none" x="1567" y="879" width="80" height="44" opacity="0.2"/></g><g transform="translate(-190,-6) scale(1,1)"><rect fill="#ffffff" stroke="none" x="1560" y="872" width="80" height="44"/></g><g transform="translate(-190,-6) scale(1,1)"><path fill="none" stroke="#000000" d="M 1560 872 L 1640 872 L 1640 916 L 1560 916 L 1560 872 Z Z" stroke-miterlimit="10"/></g><g transform="translate(-190,-6) scale(1,1)"><path fill="none" stroke="#000000" d="M 1560 897 L 1640 897" stroke-miterlimit="10"/></g><g transform="translate(-190,-6) scale(1,1)"><path fill="none" stroke="#000000" d="M 1560 907 L 1640 907" stroke-miterlimit="10"/></g><g transform="translate(-190,-6) scale(1,1)"><g><path fill="none" stroke="none"/><text fill="#000000" stroke="none" font-family="Arial" font-size="13px" font-style="normal" font-weight="bold" text-decoration="none" x="1570.016845703125" y="891.5">FindCover</text></g></g><g transform="translate(-190,-6) scale(1,1)"><rect fill="#C0C0C0" stroke="none" x="1567" y="783" width="80" height="44" opacity="0.2"/></g><g transform="translate(-190,-6) scale(1,1)"><rect fill="#ffffff" stroke="none" x="1560" y="776" width="80" height="44"/></g><g transform="translate(-190,-6) scale(1,1)"><path fill="none" stroke="#000000" d="M 1560 776 L 1640 776 L 1640 820 L 1560 820 L 1560 776 Z Z" stroke-miterlimit="10"/></g><g transform="translate(-190,-6) scale(1,1)"><path fill="none" stroke="#000000" d="M 1560 801 L 1640 801" stroke-miterlimit="10"/></g><g transform="translate(-190,-6) scale(1,1)"><path fill="none" stroke="#000000" d="M 1560 811 L 1640 811" stroke-miterlimit="10"/></g><g transform="translate(-190,-6) scale(1,1)"><g><path fill="none" stroke="none"/><text fill="#000000" stroke="none" font-family="Arial" font-size="13px" font-style="normal" font-weight="bold" text-decoration="none" x="1579.0400390625" y="795.5">Defend</text></g></g><g transform="translate(-190,-6) scale(1,1)"><rect fill="#C0C0C0" stroke="none" x="1247" y="111" width="192" height="216" opacity="0.2"/></g><g transform="translate(-190,-6) scale(1,1)"><rect fill="#ffffff" stroke="none" x="1240" y="104" width="192" height="216"/></g><g transform="translate(-190,-6) scale(1,1)"><path fill="none" stroke="#000000" d="M 1240 104 L 1432 104 L 1432 320 L 1240 320 L 1240 104 Z Z" stroke-miterlimit="10"/></g><g transform="translate(-190,-6) scale(1,1)"><path fill="none" stroke="#000000" d="M 1240 129 L 1432 129" stroke-miterlimit="10"/></g><g transform="translate(-190,-6) scale(1,1)"><path fill="none" stroke="#000000" d="M 1240 139 L 1432 139" stroke-miterlimit="10"/></g><g transform="translate(-190,-6) scale(1,1)"><g><path fill="none" stroke="none"/><text fill="#000000" stroke="none" font-family="Arial" font-size="13px" font-style="normal" font-weight="bold" text-decoration="none" x="1310.701416015625" y="123.5">Planning</text></g></g><g transform="translate(-190,-6) scale(1,1)"><g><path fill="none" stroke="none"/><text fill="#000000" stroke="none" font-family="Arial" font-size="13px" font-style="normal" font-weight="normal" text-decoration="none" x="1245" y="156.5">+planFromGoal()</text></g></g><g transform="translate(-190,-6) scale(1,1)"><g><path fill="none" stroke="none"/><text fill="#000000" stroke="none" font-family="Arial" font-size="13px" font-style="normal" font-weight="normal" text-decoration="none" x="1245" y="171.5">+isGoalComplete(): boolean</text></g></g><g transform="translate(-190,-6) scale(1,1)"><rect fill="#C0C0C0" stroke="none" x="839" y="567" width="257.93603515625" height="272" opacity="0.2"/></g><g transform="translate(-190,-6) scale(1,1)"><rect fill="#ffffff" stroke="none" x="832" y="560" width="257.93603515625" height="272"/></g><g transform="translate(-190,-6) scale(1,1)"><path fill="none" stroke="#000000" d="M 832 560 L 1089.93603515625 560 L 1089.93603515625 832 L 832 832 L 832 560 Z Z" stroke-miterlimit="10"/></g><g transform="translate(-190,-6) scale(1,1)"><path fill="none" stroke="#000000" d="M 832 585 L 1089.93603515625 585" stroke-miterlimit="10"/></g><g transform="translate(-190,-6) scale(1,1)"><path fill="none" stroke="#000000" d="M 832 683 L 1089.93603515625 683" stroke-miterlimit="10"/></g><g transform="translate(-190,-6) scale(1,1)"><g><path fill="none" stroke="none"/><text fill="#000000" stroke="none" font-family="Arial" font-size="13px" font-style="normal" font-weight="bold" text-decoration="none" x="929.53759765625" y="579.5">BaseScript</text></g></g><g transform="translate(-190,-6) scale(1,1)"><g><path fill="none" stroke="none"/><text fill="#000000" stroke="none" font-family="Arial" font-size="13px" font-style="normal" font-weight="normal" text-decoration="none" x="837" y="602.5">+IdleBehaviour: CustomAIBehaviour</text></g></g><g transform="translate(-190,-6) scale(1,1)"><g><path fill="none" stroke="none"/><text fill="#000000" stroke="none" font-family="Arial" font-size="13px" font-style="normal" font-weight="normal" text-decoration="none" x="837" y="617.5">+CombatBehaviour: CustomAIBehaviour</text></g></g><g transform="translate(-190,-6) scale(1,1)"><g><path fill="none" stroke="none"/><text fill="#000000" stroke="none" font-family="Arial" font-size="13px" font-style="normal" font-weight="normal" text-decoration="none" x="837" y="632.5">+canOverride: boolean</text></g></g><g transform="translate(-190,-6) scale(1,1)"><g><path fill="none" stroke="none"/><text fill="#000000" stroke="none" font-family="Arial" font-size="13px" font-style="normal" font-weight="normal" text-decoration="none" x="837" y="647.5">+currentBehaviour: CustomAIBehaviour</text></g></g><g transform="translate(-190,-6) scale(1,1)"><g><path fill="none" stroke="none"/><text fill="#000000" stroke="none" font-family="Arial" font-size="13px" font-style="normal" font-weight="normal" text-decoration="none" x="837" y="662.5">+engaging: boolean</text></g></g><g transform="translate(-190,-6) scale(1,1)"><g><path fill="none" stroke="none"/><text fill="#000000" stroke="none" font-family="Arial" font-size="13px" font-style="normal" font-weight="normal" text-decoration="none" x="837" y="677.5">+TargetTransform: Transform</text></g></g><g transform="translate(-190,-6) scale(1,1)"><path fill="none" stroke="#000000" d="M 1433 212 L 1511 212" stroke-miterlimit="10"/></g><g transform="translate(-190,-6) scale(1,1)"><path fill="none" stroke="#000000" d="M 1500.837325142376 216.209517756016 L 1511 212 L 1500.837325142376 207.790482243984" stroke-miterlimit="10"/></g><g transform="translate(-190,-6) scale(1,1)"><g><path fill="none" stroke="none"/><text fill="#000000" stroke="none" font-family="Arial" font-size="13px" font-style="normal" font-weight="normal" text-decoration="none" x="1452" y="189">+goal</text></g></g><g transform="translate(-190,-6) scale(1,1)"><g><path fill="none" stroke="none"/><text fill="#000000" stroke="none" font-family="Arial" font-size="13px" font-style="normal" font-weight="normal" text-decoration="none" x="1486" y="231">1</text></g></g><g transform="translate(-190,-6) scale(1,1)"><path fill="none" stroke="#000000" d="M 1338 321 L 1338 351" stroke-miterlimit="10"/></g><g transform="translate(-190,-6) scale(1,1)"><path fill="none" stroke="#000000" d="M 1333.7904822439841 340.83732514237585 L 1338 351 L 1342.2095177560159 340.83732514237585" stroke-miterlimit="10"/></g><g transform="translate(-190,-6) scale(1,1)"><g><path fill="none" stroke="none"/><text fill="#000000" stroke="none" font-family="Arial" font-size="13px" font-style="normal" font-weight="normal" text-decoration="none" x="1351" y="341">+plan</text></g></g><g transform="translate(-190,-6) scale(1,1)"><g><path fill="none" stroke="none"/><text fill="#000000" stroke="none" font-family="Arial" font-size="13px" font-style="normal" font-weight="normal" text-decoration="none" x="1322" y="336">1</text></g></g><g transform="translate(-190,-6) scale(1,1)"><path fill="none" stroke="#000000" d="M 954 405 L 957 559" stroke-miterlimit="10"/></g><g transform="translate(-190,-6) scale(1,1)"><g><path fill="none" stroke="none"/><text fill="#000000" stroke="none" font-family="Arial" font-size="13px" font-style="normal" font-weight="normal" text-decoration="none" x="931" y="433">2..3</text></g></g><g transform="translate(-190,-6) scale(1,1)"><g><path fill="none" stroke="none"/><text fill="#000000" stroke="none" font-family="Arial" font-size="13px" font-style="normal" font-weight="normal" text-decoration="none" x="941" y="544">1</text></g></g><g transform="translate(-190,-6) scale(1,1)"><rect fill="#C0C0C0" stroke="none" x="207" y="39" width="179.2" height="15" opacity="0.2"/></g><g transform="translate(-190,-6) scale(1,1)"><rect fill="#C0C0C0" stroke="none" x="207" y="53" width="448" height="954" opacity="0.2"/></g><g transform="translate(-190,-6) scale(1,1)"><rect fill="#ffffff" stroke="none" x="200" y="47" width="448" height="953"/></g><g transform="translate(-190,-6) scale(1,1)"><path fill="none" stroke="#000000" d="M 200 47 L 648 47 L 648 1000 L 200 1000 L 200 47 Z Z" stroke-miterlimit="10"/></g><g transform="translate(-190,-6) scale(1,1)"><rect fill="#ffffff" stroke="none" x="200" y="32" width="179.2" height="15"/></g><g transform="translate(-190,-6) scale(1,1)"><path fill="none" stroke="#000000" d="M 200 32 L 379.2 32 L 379.2 47 L 200 47 L 200 32 Z Z" stroke-miterlimit="10"/></g><g transform="translate(-190,-6) scale(1,1)"><rect fill="#ffffff" stroke="none" x="200" y="46" width="448" height="954"/></g><g transform="translate(-190,-6) scale(1,1)"><path fill="none" stroke="#000000" d="M 200 46 L 648 46 L 648 1000 L 200 1000 L 200 46 Z Z" stroke-miterlimit="10"/></g><g transform="translate(-190,-6) scale(1,1)"><g><path fill="none" stroke="none"/><text fill="#000000" stroke="none" font-family="Arial" font-size="13px" font-style="normal" font-weight="normal" text-decoration="none" x="392.925048828125" y="64.5">«External»</text></g></g><g transform="translate(-190,-6) scale(1,1)"><g><path fill="none" stroke="none"/><text fill="#000000" stroke="none" font-family="Arial" font-size="13px" font-style="normal" font-weight="bold" text-decoration="none" x="388.951416015625" y="79.5">UnityEngine</text></g></g><g transform="translate(-190,-6) scale(1,1)"><rect fill="#C0C0C0" stroke="none" x="487" y="487" width="107.2236328125" height="44" opacity="0.2"/></g><g transform="translate(-190,-6) scale(1,1)"><rect fill="#ffffff" stroke="none" x="480" y="480" width="107.2236328125" height="44"/></g><g transform="translate(-190,-6) scale(1,1)"><path fill="none" stroke="#000000" d="M 480 480 L 587.2236328125 480 L 587.2236328125 524 L 480 524 L 480 480 Z Z" stroke-miterlimit="10"/></g><g transform="translate(-190,-6) scale(1,1)"><path fill="none" stroke="#000000" d="M 480 505 L 587.2236328125 505" stroke-miterlimit="10"/></g><g transform="translate(-190,-6) scale(1,1)"><path fill="none" stroke="#000000" d="M 480 515 L 587.2236328125 515" stroke-miterlimit="10"/></g><g transform="translate(-190,-6) scale(1,1)"><g><path fill="none" stroke="none"/><text fill="#000000" stroke="none" font-family="Arial" font-size="13px" font-style="normal" font-weight="bold" text-decoration="none" x="488.083251953125" y="499.5">MonoBehaviour</text></g></g><g transform="translate(-190,-6) scale(1,1)"><path fill="none" stroke="#000000" d="M 807 337 L 571 479" stroke-miterlimit="10"/></g><g transform="translate(-190,-6) scale(1,1)"><path fill="#FFFFFF" stroke="none" d="M 584.0752622562876 461.3071337277054 L 571 479 L 592.7563523269798 475.73486088744727"/></g><g transform="translate(-190,-6) scale(1,1)"><path fill="none" stroke="#000000" d="M 584.0752622562876 461.3071337277054 L 571 479 L 592.7563523269798 475.73486088744727 L 584.0752622562876 461.3071337277054" stroke-miterlimit="10"/></g><g transform="translate(-190,-6) scale(1,1)"><path fill="none" stroke="#000000" d="M 831 637 L 584 525" stroke-miterlimit="10"/></g><g transform="translate(-190,-6) scale(1,1)"><path fill="#FFFFFF" stroke="none" d="M 605.988012692322 525.7261527678711 L 584 525 L 599.0344053332177 541.0613404258959"/></g><g transform="translate(-190,-6) scale(1,1)"><path fill="none" stroke="#000000" d="M 605.988012692322 525.7261527678711 L 584 525 L 599.0344053332177 541.0613404258959 L 605.988012692322 525.7261527678711" stroke-miterlimit="10"/></g><g transform="translate(-190,-6) scale(1,1)"><path fill="none" stroke="#000000" d="M 807 279 L 578 326" stroke-miterlimit="10"/></g><g transform="translate(-190,-6) scale(1,1)"><path fill="none" stroke="#000000" d="M 587.108843253746 319.83323629618536 L 578 326 L 588.8014852664315 328.0803644005467" stroke-miterlimit="10"/></g><g transform="translate(-190,-6) scale(1,1)"><g><path fill="none" stroke="none"/><text fill="#000000" stroke="none" font-family="Arial" font-size="13px" font-style="normal" font-weight="normal" text-decoration="none" x="593" y="316">2</text></g></g><g transform="translate(-190,-6) scale(1,1)"><rect fill="#C0C0C0" stroke="none" x="511" y="319" width="73.2890625" height="44" opacity="0.2"/></g><g transform="translate(-190,-6) scale(1,1)"><rect fill="#ffffff" stroke="none" x="504" y="312" width="73.2890625" height="44"/></g><g transform="translate(-190,-6) scale(1,1)"><path fill="none" stroke="#000000" d="M 504 312 L 577.2890625 312 L 577.2890625 356 L 504 356 L 504 312 Z Z" stroke-miterlimit="10"/></g><g transform="translate(-190,-6) scale(1,1)"><path fill="none" stroke="#000000" d="M 504 337 L 577.2890625 337" stroke-miterlimit="10"/></g><g transform="translate(-190,-6) scale(1,1)"><path fill="none" stroke="#000000" d="M 504 347 L 577.2890625 347" stroke-miterlimit="10"/></g><g transform="translate(-190,-6) scale(1,1)"><g><path fill="none" stroke="none"/><text fill="#000000" stroke="none" font-family="Arial" font-size="13px" font-style="normal" font-weight="bold" text-decoration="none" x="511.029541015625" y="331.5">Transform</text></g></g><g transform="translate(-190,-6) scale(1,1)"><path fill="none" stroke="#000000" d="M 807 251 L 581 254" stroke-miterlimit="10"/></g><g transform="translate(-190,-6) scale(1,1)"><path fill="none" stroke="#000000" d="M 591.1059059718012 249.65596219064415 L 581 254 L 591.2176532354205 258.07425604996797" stroke-miterlimit="10"/></g><g transform="translate(-190,-6) scale(1,1)"><g><path fill="none" stroke="none"/><text fill="#000000" stroke="none" font-family="Arial" font-size="13px" font-style="normal" font-weight="normal" text-decoration="none" x="599" y="248">1</text></g></g><g transform="translate(-190,-6) scale(1,1)"><rect fill="#C0C0C0" stroke="none" x="511" y="239" width="76.208984375" height="44" opacity="0.2"/></g><g transform="translate(-190,-6) scale(1,1)"><rect fill="#ffffff" stroke="none" x="504" y="232" width="76.208984375" height="44"/></g><g transform="translate(-190,-6) scale(1,1)"><path fill="none" stroke="#000000" d="M 504 232 L 580.208984375 232 L 580.208984375 276 L 504 276 L 504 232 Z Z" stroke-miterlimit="10"/></g><g transform="translate(-190,-6) scale(1,1)"><path fill="none" stroke="#000000" d="M 504 257 L 580.208984375 257" stroke-miterlimit="10"/></g><g transform="translate(-190,-6) scale(1,1)"><path fill="none" stroke="#000000" d="M 504 267 L 580.208984375 267" stroke-miterlimit="10"/></g><g transform="translate(-190,-6) scale(1,1)"><g><path fill="none" stroke="none"/><text fill="#000000" stroke="none" font-family="Arial" font-size="13px" font-style="normal" font-weight="bold" text-decoration="none" x="510.3154296875" y="251.5">LayerMask</text></g></g><g transform="translate(-190,-6) scale(1,1)"><path fill="none" stroke="#000000" d="M 831 585 L 567 357" stroke-miterlimit="10"/></g><g transform="translate(-190,-6) scale(1,1)"><path fill="none" stroke="#000000" d="M 577.4427706026339 360.4566663334441 L 567 357 L 571.9399217028204 366.8283861121755" stroke-miterlimit="10"/></g><g transform="translate(-190,-6) scale(1,1)"><g><path fill="none" stroke="none"/><text fill="#000000" stroke="none" font-family="Arial" font-size="13px" font-style="normal" font-weight="normal" text-decoration="none" x="588" y="368">1</text></g></g><g transform="translate(-190,-6) scale(1,1)"><rect fill="#C0C0C0" stroke="none" x="479" y="679" width="85.58447265625" height="44" opacity="0.2"/></g><g transform="translate(-190,-6) scale(1,1)"><rect fill="#ffffff" stroke="none" x="472" y="672" width="85.58447265625" height="44"/></g><g transform="translate(-190,-6) scale(1,1)"><path fill="none" stroke="#000000" d="M 472 672 L 557.58447265625 672 L 557.58447265625 716 L 472 716 L 472 672 Z Z" stroke-miterlimit="10"/></g><g transform="translate(-190,-6) scale(1,1)"><path fill="none" stroke="#000000" d="M 472 697 L 557.58447265625 697" stroke-miterlimit="10"/></g><g transform="translate(-190,-6) scale(1,1)"><path fill="none" stroke="#000000" d="M 472 707 L 557.58447265625 707" stroke-miterlimit="10"/></g><g transform="translate(-190,-6) scale(1,1)"><g><path fill="none" stroke="none"/><text fill="#000000" stroke="none" font-family="Arial" font-size="13px" font-style="normal" font-weight="bold" text-decoration="none" x="478.305908203125" y="691.5">GameObject</text></g></g><g transform="translate(-190,-6) scale(1,1)"><path fill="none" stroke="#000000" d="M 559 694 L 831 695" stroke-miterlimit="10"/></g><g transform="translate(-190,-6) scale(1,1)"><path fill="none" stroke="#000000" d="M 820.8219177596213 699.1721267847571 L 831 695 L 820.8528698868821 690.7531481698256" stroke-miterlimit="10"/></g><g transform="translate(-190,-6) scale(1,1)"><g><path fill="none" stroke="none"/><text fill="#000000" stroke="none" font-family="Arial" font-size="13px" font-style="normal" font-weight="normal" text-decoration="none" x="726" y="688">+BaseScript</text></g></g><g transform="translate(-190,-6) scale(1,1)"><g><path fill="none" stroke="none"/><text fill="#000000" stroke="none" font-family="Arial" font-size="13px" font-style="normal" font-weight="normal" text-decoration="none" x="806" y="714">1</text></g></g><g transform="translate(-190,-6) scale(1,1)"><path fill="#ffffff" stroke="none" d="M 392 736 L 621 736 L 631 746 L 631 815 L 392 815 L 392 736"/></g><g transform="translate(-190,-6) scale(1,1)"><path fill="none" stroke="#000000" d="M 392 736 L 621 736 L 631 746 L 631 815 L 392 815 L 392 736 L 392 736" stroke-miterlimit="10"/></g><g transform="translate(-190,-6) scale(1,1)"><path fill="none" stroke="#000000" d="M 621 736 L 621 746 L 631 746 L 621 736" stroke-miterlimit="10"/></g><g transform="translate(-190,-6) scale(1,1)"><g><path fill="none" stroke="none"/><text fill="#000000" stroke="none" font-family="Arial" font-size="13px" font-style="normal" font-weight="normal" text-decoration="none" x="397" y="754">Each agent is represented by one</text><text fill="#000000" stroke="none" font-family="Arial" font-size="13px" font-style="normal" font-weight="normal" text-decoration="none" x="397" y="767">GameObject instance, which has a</text><text fill="#000000" stroke="none" font-family="Arial" font-size="13px" font-style="normal" font-weight="normal" text-decoration="none" x="397" y="780">reference to the BaseScript instance</text><text fill="#000000" stroke="none" font-family="Arial" font-size="13px" font-style="normal" font-weight="normal" text-decoration="none" x="397" y="793">that defines all agent behaviour</text></g></g><g transform="translate(-190,-6) scale(1,1)"><path fill="none" stroke="#000000" d="M 513 735 L 513 717" stroke-miterlimit="10" stroke-dasharray="3"/></g><g transform="translate(-190,-6) scale(1,1)"><rect fill="#C0C0C0" stroke="none" x="1223" y="359" width="249" height="216" opacity="0.2"/></g><g transform="translate(-190,-6) scale(1,1)"><rect fill="#ffffff" stroke="none" x="1216" y="352" width="249" height="216"/></g><g transform="translate(-190,-6) scale(1,1)"><path fill="none" stroke="#000000" d="M 1216 352 L 1465 352 L 1465 568 L 1216 568 L 1216 352 Z Z" stroke-miterlimit="10"/></g><g transform="translate(-190,-6) scale(1,1)"><path fill="none" stroke="#000000" d="M 1216 377 L 1465 377" stroke-miterlimit="10"/></g><g transform="translate(-190,-6) scale(1,1)"><path fill="none" stroke="#000000" d="M 1216 387 L 1465 387" stroke-miterlimit="10"/></g><g transform="translate(-190,-6) scale(1,1)"><g><path fill="none" stroke="none"/><text fill="#000000" stroke="none" font-family="Arial" font-size="13px" font-style="normal" font-weight="bold" text-decoration="none" x="1327.490478515625" y="371.5">Plan</text></g></g><g transform="translate(-190,-6) scale(1,1)"><g><path fill="none" stroke="none"/><text fill="#000000" stroke="none" font-family="Arial" font-size="13px" font-style="normal" font-weight="normal" text-decoration="none" x="1221" y="404.5">+Plan(listOfActions: ActionInterface[1..*])</text></g></g><g transform="translate(-190,-6) scale(1,1)"><g><path fill="none" stroke="none"/><text fill="#000000" stroke="none" font-family="Arial" font-size="13px" font-style="normal" font-weight="normal" text-decoration="none" x="1221" y="419.5">+nextAICycle()</text></g></g><g transform="translate(-190,-6) scale(1,1)"><g><path fill="none" stroke="none"/><text fill="#000000" stroke="none" font-family="Arial" font-size="13px" font-style="normal" font-weight="normal" text-decoration="none" x="1221" y="434.5">+hasAction(): bool</text></g></g><g transform="translate(-190,-6) scale(1,1)"><g><path fill="none" stroke="none"/><text fill="#000000" stroke="none" font-family="Arial" font-size="13px" font-style="normal" font-weight="normal" text-decoration="none" x="1221" y="449.5">+onEndPlan()</text></g></g><g transform="translate(-190,-6) scale(1,1)"><g><path fill="none" stroke="none"/><text fill="#000000" stroke="none" font-family="Arial" font-size="13px" font-style="normal" font-weight="normal" text-decoration="none" x="1221" y="464.5">+nextAction()</text></g></g><g transform="translate(-190,-6) scale(1,1)"><g><path fill="none" stroke="none"/><text fill="#000000" stroke="none" font-family="Arial" font-size="13px" font-style="normal" font-weight="normal" text-decoration="none" x="1221" y="479.5">+getCurrentAction()</text></g></g><g transform="translate(-190,-6) scale(1,1)"><rect fill="#C0C0C0" stroke="none" x="1519" y="159" width="152" height="120" opacity="0.2"/></g><g transform="translate(-190,-6) scale(1,1)"><rect fill="#ffffff" stroke="none" x="1512" y="152" width="152" height="120"/></g><g transform="translate(-190,-6) scale(1,1)"><path fill="none" stroke="#000000" d="M 1512 152 L 1664 152 L 1664 272 L 1512 272 L 1512 152 Z Z" stroke-miterlimit="10"/></g><g transform="translate(-190,-6) scale(1,1)"><path fill="none" stroke="#000000" d="M 1512 177 L 1664 177" stroke-miterlimit="10"/></g><g transform="translate(-190,-6) scale(1,1)"><path fill="none" stroke="#000000" d="M 1512 200 L 1664 200" stroke-miterlimit="10"/></g><g transform="translate(-190,-6) scale(1,1)"><g><path fill="none" stroke="none"/><text fill="#000000" stroke="none" font-family="Arial" font-size="13px" font-style="normal" font-weight="bold" text-decoration="none" x="1574.27001953125" y="171.5">Goal</text></g></g><g transform="translate(-190,-6) scale(1,1)"><g><path fill="none" stroke="none"/><text fill="#000000" stroke="none" font-family="Arial" font-size="13px" font-style="normal" font-weight="normal" text-decoration="none" x="1517" y="194.5">+targets: Transform[1..*]</text></g></g><g transform="translate(-190,-6) scale(1,1)"><g><path fill="none" stroke="none"/><text fill="#000000" stroke="none" font-family="Arial" font-size="13px" font-style="normal" font-weight="normal" text-decoration="none" x="1517" y="217.5">+getType(): GoalType</text></g></g><g transform="translate(-190,-6) scale(1,1)"><rect fill="#C0C0C0" stroke="none" x="1519" y="327" width="152" height="120" opacity="0.2"/></g><g transform="translate(-190,-6) scale(1,1)"><rect fill="#ffffff" stroke="none" x="1512" y="320" width="152" height="120"/></g><g transform="translate(-190,-6) scale(1,1)"><path fill="none" stroke="#000000" d="M 1512 320 L 1664 320 L 1664 440 L 1512 440 L 1512 320 Z Z" stroke-miterlimit="10"/></g><g transform="translate(-190,-6) scale(1,1)"><path fill="none" stroke="#000000" d="M 1512 358 L 1664 358" stroke-miterlimit="10"/></g><g transform="translate(-190,-6) scale(1,1)"><g><path fill="none" stroke="none"/><text fill="#000000" stroke="none" font-family="Arial" font-size="13px" font-style="normal" font-weight="normal" text-decoration="none" x="1544.635986328125" y="337.5">«enumeration»</text></g></g><g transform="translate(-190,-6) scale(1,1)"><g><path fill="none" stroke="none"/><text fill="#000000" stroke="none" font-family="Arial" font-size="13px" font-style="normal" font-weight="bold" text-decoration="none" x="1559.819580078125" y="352.5">GoalType</text></g></g><g transform="translate(-190,-6) scale(1,1)"><g><path fill="none" stroke="none"/><text fill="#000000" stroke="none" font-family="Arial" font-size="13px" font-style="normal" font-weight="normal" text-decoration="none" x="1517" y="375.5">Attack</text></g></g><g transform="translate(-190,-6) scale(1,1)"><g><path fill="none" stroke="none"/><text fill="#000000" stroke="none" font-family="Arial" font-size="13px" font-style="normal" font-weight="normal" text-decoration="none" x="1517" y="390.5">Defend</text></g></g><g transform="translate(-190,-6) scale(1,1)"><g><path fill="none" stroke="none"/><text fill="#000000" stroke="none" font-family="Arial" font-size="13px" font-style="normal" font-weight="normal" text-decoration="none" x="1517" y="405.5">Patrol</text></g></g><g transform="translate(-190,-6) scale(1,1)"><g><path fill="none" stroke="none"/><text fill="#000000" stroke="none" font-family="Arial" font-size="13px" font-style="normal" font-weight="normal" text-decoration="none" x="1517" y="420.5">Wander</text></g></g></g></svg>